{
    "asset" : {
        "generator" : "Khronos glTF Blender I/O v1.5.17",
        "version" : "2.0"
    },
    "scene" : 0,
    "scenes" : [
        {
            "name" : "Scene",
            "nodes" : [
                0
            ]
        }
    ],
    "nodes" : [
        {
            "mesh" : 0,
            "name" : "object_19",
            "rotation" : [
                0,
                1,
                0,
                7.549790126404332e-08
            ],
            "scale" : [
                0.0032346162479370832,
                0.0032346162479370832,
                0.0032346162479370832
            ],
            "translation" : [
                -0.20459780097007751,
                -0.805923581123352,
                -5.4991374015808105
            ]
        }
    ],
    "materials" : [
        {
            "doubleSided" : true,
            "name" : "Default OBJ.001",
            "pbrMetallicRoughness" : {
                "baseColorTexture" : {
                    "index" : 0
                },
                "metallicFactor" : 0.23181818425655365,
                "roughnessFactor" : 0.2818181812763214
            }
        },
        {
            "doubleSided" : true,
            "name" : "Material.003",
            "pbrMetallicRoughness" : {
                "baseColorFactor" : [
                    0.6168327927589417,
                    0.03149539604783058,
                    0.00697406055405736,
                    1
                ],
                "metallicFactor" : 0.8045454025268555,
                "roughnessFactor" : 0.08181819319725037
            }
        }
    ],
    "meshes" : [
        {
            "name" : "object_19",
            "primitives" : [
                {
                    "attributes" : {
                        "POSITION" : 0,
                        "NORMAL" : 1,
                        "TEXCOORD_0" : 2
                    },
                    "indices" : 3,
                    "material" : 0
                },
                {
                    "attributes" : {
                        "POSITION" : 4,
                        "NORMAL" : 5,
                        "TEXCOORD_0" : 6
                    },
                    "indices" : 7,
                    "material" : 1
                }
            ]
        }
    ],
    "textures" : [
        {
            "sampler" : 0,
            "source" : 0
        }
    ],
    "images" : [
        {
            "bufferView" : 4,
            "mimeType" : "image/png",
            "name" : "\ub85c\ucf13\ubc1c\uc0ac\uae30 \ud14d\uc2a4\uccd0"
        }
    ],
    "accessors" : [
        {
            "bufferView" : 0,
            "componentType" : 5126,
            "count" : 2990,
            "max" : [
                355.00006103515625,
                2121,
                355.00048828125
            ],
            "min" : [
                -365.6763916015625,
                12.431251525878906,
                -354.99951171875
            ],
            "type" : "VEC3"
        },
        {
            "bufferView" : 1,
            "componentType" : 5126,
            "count" : 2990,
            "type" : "VEC3"
        },
        {
            "bufferView" : 2,
            "componentType" : 5126,
            "count" : 2990,
            "type" : "VEC2"
        },
        {
            "bufferView" : 3,
            "componentType" : 5123,
            "count" : 8352,
            "type" : "SCALAR"
        },
        {
            "bufferView" : 5,
            "componentType" : 5126,
            "count" : 592,
            "max" : [
                306.9227294921875,
                1762.7388916015625,
                298.23095703125
            ],
            "min" : [
                -264.4226989746094,
                993.1240234375,
                -295.15625
            ],
            "type" : "VEC3"
        },
        {
            "bufferView" : 6,
            "componentType" : 5126,
            "count" : 592,
            "type" : "VEC3"
        },
        {
            "bufferView" : 7,
            "componentType" : 5126,
            "count" : 592,
            "type" : "VEC2"
        },
        {
            "bufferView" : 8,
            "componentType" : 5123,
            "count" : 1584,
            "type" : "SCALAR"
        }
    ],
    "bufferViews" : [
        {
            "buffer" : 0,
            "byteLength" : 35880,
            "byteOffset" : 0
        },
        {
            "buffer" : 0,
            "byteLength" : 35880,
            "byteOffset" : 35880
        },
        {
            "buffer" : 0,
            "byteLength" : 23920,
            "byteOffset" : 71760
        },
        {
            "buffer" : 0,
            "byteLength" : 16704,
            "byteOffset" : 95680
        },
        {
            "buffer" : 0,
            "byteLength" : 548074,
            "byteOffset" : 112384
        },
        {
            "buffer" : 0,
            "byteLength" : 7104,
            "byteOffset" : 660460
        },
        {
            "buffer" : 0,
            "byteLength" : 7104,
            "byteOffset" : 667564
        },
        {
            "buffer" : 0,
            "byteLength" : 4736,
            "byteOffset" : 674668
        },
        {
            "buffer" : 0,
            "byteLength" : 3168,
            "byteOffset" : 679404
        }
    ],
    "samplers" : [
        {
            "magFilter" : 9729,
            "minFilter" : 9987
        }
    ],
    "buffers" : [
        {
            "byteLength" : 682572,
            "uri" : "data:application/octet-stream;base64,"
        }
    ]
}
